<svg width="500" height="500" viewBox="0 0 500 500" fill="none" xmlns="http://www.w3.org/2000/svg">
<rect width="500" height="500" rx="250" fill="black"/>
<path fill-rule="evenodd" clip-rule="evenodd" d="M290.136 161.23H290.136V334H290.136V161.23ZM337.153 334H356.612C374.159 334 389.372 330.569 402.251 323.708C415.13 316.79 425.085 306.892 432.115 294.013C439.145 281.078 442.66 265.612 442.66 247.615C442.66 229.618 439.117 214.18 432.03 201.301C425 188.366 414.989 178.467 401.998 171.606C389.063 164.688 373.709 161.23 355.937 161.23H337.153V201.048H353.575C362.573 201.048 370.166 202.426 376.352 205.181C382.595 207.937 387.319 212.689 390.525 219.438C393.787 226.187 395.418 235.579 395.418 247.615C395.418 259.65 393.815 269.042 390.609 275.791C387.46 282.54 382.848 287.292 376.774 290.048C370.756 292.804 363.473 294.182 354.925 294.182H337.153V334Z" fill="white"/>
<path fill-rule="evenodd" clip-rule="evenodd" d="M217.08 231.435L246.793 274.668L287.598 334H326.741V161.23H279.837V251.664H278.487L217.08 161.241V231.435Z" fill="white"/>
<path d="M160.381 161.23H207.285V271.911C207.285 285.071 204.136 296.46 197.837 306.077C191.594 315.638 182.877 323.033 171.685 328.263C160.493 333.438 147.502 336.025 132.71 336.025C117.807 336.025 104.759 333.438 93.567 328.263C82.3752 323.033 73.6579 315.638 67.4153 306.077C61.2288 296.46 58.1356 285.071 58.1356 271.911V161.23H105.04V267.861C105.04 273.204 106.221 277.985 108.583 282.203C110.945 286.364 114.207 289.626 118.369 291.988C122.587 294.351 127.367 295.532 132.71 295.532C138.109 295.532 142.89 294.351 147.052 291.988C151.213 289.626 154.475 286.364 156.837 282.203C159.2 277.985 160.381 273.204 160.381 267.861V161.23Z" fill="white"/>
</svg>
