<svg width="1466" height="292" viewBox="0 0 1466 292" fill="none" xmlns="http://www.w3.org/2000/svg">
<path fill-rule="evenodd" clip-rule="evenodd" d="M243.136 57.2296H243.136V230H243.136V57.2296ZM290.153 230H309.612C327.159 230 342.372 226.569 355.251 219.708C368.13 212.79 378.085 202.892 385.115 190.013C392.145 177.078 395.66 161.612 395.66 143.615C395.66 125.618 392.117 110.18 385.03 97.3009C378 84.3656 367.989 74.4673 354.998 67.6059C342.063 60.6884 326.709 57.2296 308.937 57.2296H290.153V97.0478H306.575C315.573 97.0478 323.166 98.4257 329.352 101.181C335.595 103.937 340.319 108.69 343.525 115.438C346.787 122.187 348.418 131.579 348.418 143.615C348.418 155.65 346.815 165.042 343.609 171.791C340.46 178.54 335.848 183.292 329.774 186.048C323.756 188.804 316.473 190.182 307.925 190.182H290.153V230ZM530 57.2296H405.483V230H529.662V192.206H452.388V162.512H523.588V124.718H452.388V95.0231H530V57.2296ZM615.959 57.2296H541.384V230H588.289V172.972H604.522L634.856 230H685.809L650.723 165.584C659.686 161.283 666.713 155.169 671.805 147.242C677.317 138.75 680.073 128.317 680.073 115.945C680.073 103.684 677.401 93.1672 672.059 84.3937C666.716 75.6202 659.236 68.8995 649.619 64.2315C640.002 59.5636 628.782 57.2296 615.959 57.2296ZM588.289 136.529H604.823C610.335 136.529 615.031 135.854 618.911 134.504C622.848 133.098 625.857 130.876 627.938 127.839C630.075 124.802 631.144 120.837 631.144 115.945C631.144 110.995 630.075 106.974 627.938 103.881C625.857 100.732 622.848 98.4257 618.911 96.9634C615.031 95.4449 610.335 94.6857 604.823 94.6857H588.289V136.529ZM774.995 98.0601C778.763 101.21 780.872 105.596 781.322 111.22H826.202C826.146 99.916 823.334 90.0458 817.766 81.6098C812.255 73.1175 804.409 66.5374 794.229 61.8694C784.05 57.2015 771.986 54.8675 758.039 54.8675C744.372 54.8675 732.253 57.1733 721.679 61.7851C711.162 66.3968 702.923 72.8363 696.962 81.1036C691.057 89.3147 688.132 98.9037 688.188 109.871C688.132 123.368 692.491 134.026 701.264 141.843C710.094 149.604 722.157 155.144 737.455 158.462L754.664 162.174C761.076 163.58 766.166 165.099 769.934 166.73C773.702 168.304 776.401 170.104 778.032 172.129C779.719 174.097 780.591 176.403 780.647 179.046C780.591 181.858 779.691 184.361 777.948 186.554C776.204 188.748 773.646 190.463 770.271 191.7C766.897 192.938 762.707 193.556 757.701 193.556C751.74 193.556 746.594 192.628 742.263 190.772C737.989 188.916 734.671 186.189 732.309 182.589C729.947 178.99 728.625 174.547 728.344 169.26H683.802C683.858 183.714 686.951 195.581 693.081 204.861C699.268 214.084 707.929 220.917 719.064 225.36C730.256 229.803 743.36 232.025 758.376 232.025C772.999 232.025 785.512 229.972 795.917 225.866C806.377 221.761 814.42 215.771 820.044 207.898C825.668 200.024 828.508 190.407 828.564 179.046C828.508 172.466 827.439 166.392 825.359 160.824C823.334 155.257 820.156 150.251 815.826 145.808C811.495 141.309 805.927 137.4 799.122 134.082C792.317 130.764 784.134 128.092 774.573 126.068L760.401 123.031C756.295 122.187 752.752 121.231 749.772 120.163C746.791 119.094 744.344 117.913 742.432 116.619C740.52 115.27 739.114 113.779 738.214 112.148C737.371 110.461 737.005 108.577 737.117 106.496C737.174 103.965 737.933 101.716 739.395 99.7473C740.857 97.7789 743.107 96.2323 746.144 95.1075C749.237 93.9264 753.202 93.3359 758.039 93.3359C765.631 93.3359 771.283 94.9106 774.995 98.0601ZM948.247 122.019H995.826C994.926 111.277 992.367 101.744 988.149 93.4203C983.931 85.0967 978.363 78.0948 971.446 72.4145C964.528 66.678 956.486 62.3193 947.319 59.3386C938.151 56.3579 928.113 54.8675 917.202 54.8675C901.68 54.8675 887.619 58.27 875.022 65.0751C862.424 71.824 852.413 81.8066 844.989 95.0231C837.566 108.183 833.854 124.381 833.854 143.615C833.854 162.737 837.481 178.906 844.736 192.122C852.047 205.339 861.974 215.349 874.515 222.154C887.113 228.96 901.342 232.362 917.202 232.362C929.856 232.362 940.963 230.422 950.524 226.541C960.085 222.661 968.099 217.543 974.567 211.188C981.091 204.776 986.125 197.802 989.668 190.266C993.211 182.674 995.264 175.222 995.826 167.911L948.247 167.573C947.684 171.285 946.588 174.631 944.957 177.612C943.382 180.537 941.329 183.039 938.798 185.12C936.267 187.201 933.287 188.804 929.856 189.929C926.425 190.997 922.545 191.532 918.214 191.532C910.622 191.532 904.126 189.76 898.727 186.217C893.328 182.618 889.194 177.275 886.326 170.188C883.514 163.046 882.108 154.188 882.108 143.615C882.108 133.604 883.486 125.027 886.242 117.885C889.054 110.742 893.159 105.259 898.558 101.435C904.014 97.6102 910.678 95.698 918.552 95.698C923.051 95.698 927.072 96.3448 930.615 97.6383C934.158 98.8756 937.167 100.675 939.642 103.037C942.173 105.343 944.141 108.099 945.547 111.305C947.009 114.51 947.909 118.082 948.247 122.019ZM1161.38 192.291C1168.86 179.074 1172.6 162.849 1172.6 143.615C1172.6 124.381 1168.86 108.183 1161.38 95.0231C1153.9 81.8066 1143.8 71.824 1131.09 65.0751C1118.38 58.27 1104.21 54.8675 1088.58 54.8675C1072.83 54.8675 1058.6 58.27 1045.89 65.0751C1033.24 71.824 1023.17 81.8066 1015.69 95.0231C1008.26 108.183 1004.55 124.381 1004.55 143.615C1004.55 162.737 1008.26 178.906 1015.69 192.122C1023.17 205.282 1033.24 215.293 1045.89 222.154C1058.6 228.96 1072.83 232.362 1088.58 232.362C1104.21 232.362 1118.38 228.988 1131.09 222.239C1143.8 215.434 1153.9 205.451 1161.38 192.291ZM1120.21 117.463C1122.97 124.549 1124.35 133.267 1124.35 143.615C1124.35 153.963 1122.97 162.708 1120.21 169.851C1117.51 176.937 1113.49 182.336 1108.15 186.048C1102.86 189.704 1096.34 191.532 1088.58 191.532C1080.81 191.532 1074.26 189.704 1068.92 186.048C1063.63 182.336 1059.61 176.937 1056.86 169.851C1054.16 162.708 1052.81 153.963 1052.81 143.615C1052.81 133.267 1054.16 124.549 1056.86 117.463C1059.61 110.32 1063.63 104.921 1068.92 101.266C1074.26 97.5539 1080.81 95.698 1088.58 95.698C1096.34 95.698 1102.86 97.5539 1108.15 101.266C1113.49 104.921 1117.51 110.32 1120.21 117.463ZM1257 57.2296H1182.42V230H1229.33V172.972H1245.56L1275.89 230H1326.85L1291.76 165.584C1300.72 161.283 1307.75 155.169 1312.84 147.242C1318.36 138.75 1321.11 128.317 1321.11 115.945C1321.11 103.684 1318.44 93.1672 1313.1 84.3937C1307.75 75.6202 1300.27 68.8995 1290.66 64.2315C1281.04 59.5636 1269.82 57.2296 1257 57.2296ZM1229.33 136.529H1245.86C1251.37 136.529 1256.07 135.854 1259.95 134.504C1263.89 133.098 1266.9 130.876 1268.98 127.839C1271.11 124.802 1272.18 120.837 1272.18 115.945C1272.18 110.995 1271.11 106.974 1268.98 103.881C1266.9 100.732 1263.89 98.4257 1259.95 96.9634C1256.07 95.4449 1251.37 94.6857 1245.86 94.6857H1229.33V136.529ZM1453.74 57.2296H1329.23V230H1453.41V192.206H1376.13V162.512H1447.33V124.718H1376.13V95.0231H1453.74V57.2296Z" fill="white"/>
<path fill-rule="evenodd" clip-rule="evenodd" d="M170.08 127.435L199.793 170.668L240.598 230H279.741V57.2296H232.837V147.664H231.487L170.08 57.2407V127.435Z" fill="white"/>
<path d="M113.381 57.2296H160.285V167.911C160.285 181.071 157.136 192.46 150.837 202.077C144.594 211.638 135.877 219.033 124.685 224.263C113.493 229.438 100.502 232.025 85.7103 232.025C70.8066 232.025 57.7589 229.438 46.567 224.263C35.3752 219.033 26.6579 211.638 20.4153 202.077C14.2288 192.46 11.1356 181.071 11.1356 167.911V57.2296H58.0401V163.861C58.0401 169.204 59.2211 173.985 61.5832 178.203C63.9453 182.364 67.2072 185.626 71.369 187.988C75.5871 190.351 80.3675 191.532 85.7103 191.532C91.1094 191.532 95.8898 190.351 100.052 187.988C104.213 185.626 107.475 182.364 109.837 178.203C112.2 173.985 113.381 169.204 113.381 163.861V57.2296Z" fill="white"/>
</svg>
